<?xml version="1.0" standalone="no"?>
<!DOCTYPE svg PUBLIC "-//W3C//DTD SVG 1.1//EN" "http://www.w3.org/Graphics/SVG/1.1/DTD/svg11.dtd" >
<svg xmlns="http://www.w3.org/2000/svg">
<metadata>
Created by FontForge 20120731 at Mon Jun  5 21:30:01 2017
 By admin
</metadata>
<defs>
<font id="iconfont" horiz-adv-x="1024" >
  <font-face 
    font-family="iconfont"
    font-weight="500"
    font-stretch="normal"
    units-per-em="1024"
    panose-1="2 0 6 3 0 0 0 0 0 0"
    ascent="896"
    descent="-128"
    x-height="792"
    bbox="0 -146 1274 896"
    underline-thickness="0"
    underline-position="0"
    unicode-range="U+0078-E958"
  />
<missing-glyph 
 />
    <glyph glyph-name=".notdef" 
 />
    <glyph glyph-name=".notdef" 
 />
    <glyph glyph-name=".null" horiz-adv-x="0" 
 />
    <glyph glyph-name="nonmarkingreturn" horiz-adv-x="341" 
 />
    <glyph glyph-name="x" unicode="x" horiz-adv-x="1001" 
d="M281 543q-27 -1 -53 -1h-83q-18 0 -36.5 -6t-32.5 -18.5t-23 -32t-9 -45.5v-76h912v41q0 16 -0.5 30t-0.5 18q0 13 -5 29t-17 29.5t-31.5 22.5t-49.5 9h-133v-97h-438v97zM955 310v-52q0 -23 0.5 -52t0.5 -58t-10.5 -47.5t-26 -30t-33 -16t-31.5 -4.5q-14 -1 -29.5 -0.5
t-29.5 0.5h-32l-45 128h-439l-44 -128h-29h-34q-20 0 -45 1q-25 0 -41 9.5t-25.5 23t-13.5 29.5t-4 30v167h911zM163 247q-12 0 -21 -8.5t-9 -21.5t9 -21.5t21 -8.5q13 0 22 8.5t9 21.5t-9 21.5t-22 8.5zM316 123q-8 -26 -14 -48q-5 -19 -10.5 -37t-7.5 -25t-3 -15t1 -14.5
t9.5 -10.5t21.5 -4h37h67h81h80h64h36q23 0 34 12t2 38q-5 13 -9.5 30.5t-9.5 34.5q-5 19 -11 39h-368zM336 498v228q0 11 2.5 23t10 21.5t20.5 15.5t34 6h188q31 0 51.5 -14.5t20.5 -52.5v-227h-327z" />
    <glyph glyph-name="mail" unicode="&#xe609;" 
d="M51 441v-485h928v485l-464 -230zM51 644v-129l464 -230l464 230v129h-928z" />
    <glyph glyph-name="top" unicode="&#xe614;" 
d="M959 319l-447 320l-449 -317v66l449 316l447 -319v-66z" />
    <glyph glyph-name="star" unicode="&#xe63c;" 
d="M33 895zM65 895zM97 895zM129 895zM161 895zM193 895zM225 895zM256 895zM288 895zM320 895zM352 895zM384 895zM416 895zM448 895zM480 895zM512 895zM544 895zM576 895zM608 895zM640 895zM672 895zM704 895zM736 895zM768 895zM799 895zM831 895zM863 895zM895 895z
M927 895zM959 895zM991 895zM1 863zM1 831zM1 799zM1 767zM1 735zM1 703zM1 671zM1 640zM1 608zM1 576zM1 544zM1 512zM1 480zM1 448zM1 416zM1 384zM1 352zM1 320zM1 288zM1 256zM1 224zM1 192zM1 160zM1 128zM1 97zM1 65zM1 33zM1 1zM1 -31zM1 -63zM1 -95zM513 787
q-6 0 -11 -1.5t-9 -3.5t-7 -5.5t-6 -7.5t-5 -8t-4 -9l-103 -235l-274 -25q-10 -2 -17 -9l-4 -4q-2 -2 -3 -5l-2 -4q-1 -3 -1 -6q-2 -12 5 -25q4 -5 8.5 -10.5t10.5 -10.5l10 -9l22 -19q1 -1 5.5 -5t6.5 -5l6 -5q4 -3 7 -6t6 -5l36 -30q30 -26 93 -80l-29 -124
q-6 -21 -12 -46q-4 -13 -6.5 -23t-4.5 -19q-4 -20 -8 -32l-4 -17q-2 -8 1.5 -15.5t11.5 -13.5q7 -5 17 -6l4 -1q6 0 13 4h2l3 2q2 1 3.5 2t4 2t4.5 3q11 5 31 17q10 6 40 23q27 16 44 25q46 26 115 66l232 -134l13 -5q8 -3 12 -3q6 0 12 1.5t12 4.5q11 6 8 23q-1 2 -1.5 6
t-2.5 11l-6 33q-5 22 -9 44q-2 11 -4.5 22.5t-5.5 24.5q-3 21 -7 39t-9 41.5t-9 45.5l183 164l6 6l4 6q3 3 5 5.5t4 4.5q8 9 8 22t-7 19q-8 6 -25 11l-275 25l-99 236q-1 2 -2.5 4t-2.5 5q-1 2 -2.5 3.5t-2.5 3.5t-3 3q-2 3 -4.5 5.5t-6 4.5t-7.5 3t-8 1z" />
    <glyph glyph-name="business" unicode="&#xe6b1;" 
d="M512 597v171h-427v-768h854v597h-427zM256 85h-85v86h85v-86zM256 256h-85v85h85v-85zM256 427h-85v85h85v-85zM256 597h-85v86h85v-86zM427 85h-86v86h86v-86zM427 256h-86v85h86v-85zM427 427h-86v85h86v-85zM427 597h-86v86h86v-86zM853 85h-341v86h85v85h-85v85h85
v86h-85v85h341v-427zM768 427h-85v-86h85v86zM768 256h-85v-85h85v85z" />
    <glyph glyph-name="tel" unicode="&#xe613;" 
d="M117 792v0v0zM915 89q0 -15 -5.5 -40t-11.5 -39q-12 -28 -70 -60q-53 -29 -105 -29q-15 0 -29.5 2t-33 7t-27 8.5t-31.5 12t-28 9.5q-55 20 -99 47q-72 45 -149.5 122.5t-122.5 149.5q-27 44 -47 100q-2 5 -10.5 27.5t-11.5 31.5t-8 27t-7 32.5t-2 29.5q0 52 29 106
q32 57 60 69q14 6 38.5 11.5t40.5 5.5q8 0 12 -1q10 -4 30 -43q6 -11 16.5 -31t20 -36t17.5 -30q2 -3 10 -14.5t12 -20t4 -16.5q0 -11 -16 -28t-35 -31t-35 -30t-16 -26q0 -5 2.5 -13t4.5 -12t8 -13.5t7 -10.5q43 -78 98.5 -133.5t133.5 -98.5q1 -1 10.5 -7t13.5 -8
t11.5 -4.5t12.5 -2.5q11 0 26.5 16t30 35t31.5 35t28 16q8 0 16 -4t20 -12t14 -10q15 -8 31 -17t36 -20t30 -17q40 -20 43 -30q2 -4 2 -12v0z" />
    <glyph glyph-name="fun" unicode="&#xe622;" 
d="M87 -92l30 -29q24 -25 59 -25t59 25l328 240q-87 23 -149.5 86t-86.5 149l-240 -327q-25 -25 -25 -59.5t25 -59.5zM258 109l44 44q9 9 22 9t22.5 -9t9.5 -22t-9 -22l-45 -45q-9 -9 -22 -9t-22.5 9t-9.5 22t10 23zM873 249q86 86 86 208t-86 208t-207.5 86t-207.5 -86
t-86 -208t86 -208t207.5 -86t207.5 86z" />
    <glyph glyph-name="hotel" unicode="&#xe659;" horiz-adv-x="1103" 
d="M437 611q0 13 -9.5 22.5t-22.5 9.5h-31q-13 0 -22 -9.5t-9 -22.5v-87q0 -13 9 -22.5t22 -9.5h31q13 0 22.5 9.5t9.5 22.5v87zM437 385q0 13 -9.5 22.5t-22.5 9.5h-31q-13 0 -22.5 -9.5t-9.5 -22.5v-87q0 -13 9.5 -22.5t22.5 -9.5h31q13 0 22.5 9.5t9.5 22.5v87zM606 385
q0 13 -9 22.5t-22 9.5h-31q-13 0 -22.5 -9.5t-9.5 -22.5v-87q0 -13 9.5 -22.5t22.5 -9.5h31q13 0 22 9.5t9 22.5v87zM606 611q0 13 -9 22.5t-22 9.5h-31q-13 0 -22.5 -9.5t-9.5 -22.5v-87q0 -13 9.5 -22.5t22.5 -9.5h31q13 0 22 9.5t9 22.5v87zM993 22h-47v377
q0 23 -16.5 39t-39.5 16h-95v338q0 24 -16.5 41t-39.5 17h-133h-264h-132q-23 0 -39.5 -16.5t-16.5 -39.5v-79.5v-193v-227v-193v-79.5h-45q-21 0 -35 -14t-14 -33q0 -20 13.5 -33.5t32.5 -13.5q1 -1 887 -1q20 1 33.5 14.5t13.5 33.5q0 19 -13.5 33t-33.5 14zM795 323v1v0
q0 15 11 26t26.5 11t26.5 -11t11 -26v-265q0 -15 -11 -26t-26.5 -11t-26.5 11t-11 26v0v1v263v0zM248 728q0 11 8 19.5t20 8.5h2h395q11 0 19.5 -8.5t8.5 -19.5v-706h-453v706z" />
    <glyph glyph-name="hook" unicode="&#xe63a;" 
d="M267 364l57 46l114 -85l18.5 18.5t47 44t70.5 61t83.5 62t91.5 54.5l22 -24q-8 -7 -21.5 -19t-51.5 -50.5t-72.5 -79t-75 -101t-68.5 -118.5zM202 687v-370q0 -19 0.5 -31.5t7 -40.5t17.5 -49.5t34 -52.5t55.5 -57.5t83.5 -56.5t116 -55q65 25 116.5 55t83.5 56.5
t55.5 57.5t34.5 52.5t17 49.5t6.5 40.5t0.5 31.5v370q-80 0 -149.5 18.5t-103.5 37t-61 39.5q-26 -21 -60 -39.5t-104 -37t-150 -18.5zM516 -86l-10 4q-93 36 -161 79t-105 82.5t-59 85t-28.5 79.5t-6.5 73v427l29 -1q63 -2 119.5 7.5t90.5 22t62 29.5t36.5 24.5t12.5 11.5
l20 22l21 -22q4 -5 11 -11t34 -22.5t58 -29t83.5 -22.5t109.5 -10v0h24l29 1v-427q0 -39 -6 -73t-28 -79.5t-59.5 -85t-105.5 -82.5t-161 -79z" />
    <glyph glyph-name="jiantou" unicode="&#xe6ad;" horiz-adv-x="1025" 
d="M512 90l512 512h-1024z" />
    <glyph glyph-name="xueli" unicode="&#xe60d;" horiz-adv-x="1106" 
d="M553 -128l398 209l-108 347l-290 -146l-291 146l-107 -347zM1078 250l-53 327l81 41l-553 278l-553 -278l553 -278l471 237v-352l52 25h2z" />
    <glyph glyph-name="tour" unicode="&#xe958;" 
d="M725 723l32 -32q13 13 31 13t31 -12.5t13 -31t-13 -31.5l32 -32q26 26 26 63t-26 63q-25 26 -62 26t-64 -26v0zM634 784l-66 -89l-400 86q-34 9 -47 11q-50 7 -82 -25q-18 -19 -25 -44t-1 -50l1 -3q8 -28 25 -46q21 -21 46 -28q105 -68 286 -167l-95 -125h-100
q-34 2 -53 -4.5t-38 -25.5q-30 -29 -30 -71t30 -72q22 -22 47 -27h1q25 -2 61 -4t48 -3l1 -2q1 -6 2 -32.5t3 -44.5q-3 -46 28 -77q22 -21 51 -27v0v0q52 -10 91 29q18 18 23 42t5 60l1 94l118 94q107 -192 164 -281q11 -25 26 -41q21 -20 46 -25l1 -1l2 1q25 -6 50 1t44 26
t27 44t3 48l-118 423l101 80q11 8 20 13t16 12q60 60 66.5 150t-50.5 150q-61 57 -150.5 51t-149.5 -67zM78 662q-12 13 -12 33t12 33q17 16 43 11h1l413 -88l-133 -179zM870 -9q5 -24 -13 -42q-13 -13 -31.5 -13t-31.5 13q-10 11 -12 20l-170 302l146 111l112 -391v0z
M895 563v0l-506 -394l-3 -167q-2 -11 -11 -20q-13 -13 -31.5 -13t-31.5 13q-8 9 -11 20l-1 107q0 2 0.5 5t0.5 5v1q0 16 -9 25q-4 4 -11 7h-1q-1 0 -2.5 0.5t-2.5 0.5q-2 0 -4 1t-4 1h-9l-118 3q-3 1 -19 12q-13 13 -13 31.5t13 31.5q11 11 20 13v0h164l386 516q6 10 12 16
q44 44 110 50.5t110 -33.5q41 -44 34 -109.5t-51 -109.5q-2 -4 -6 -7.5t-5 -5.5v0zM895 563z" />
    <glyph glyph-name="name" unicode="&#xe661;" 
d="M647 118q-18 9 -24.5 23.5t-3 29t9.5 27.5t12 21l6 9h-5q79 60 117 178l2.5 -2t3.5 -3q17 -5 34.5 13.5t25 50.5t0.5 58t-24 32q-7 2 -16 -1q17 331 -273 331q-46 0 -87 -11t-78 -36.5t-62.5 -64t-38 -99t-6.5 -136.5q-9 3 -17 1q-17 -5 -24 -31.5t0.5 -58t24.5 -50.5
t35 -14q3 2 10 8q38 -109 111 -165h-4q2 -2 4 -5t7.5 -11.5t9 -17t6.5 -20t1.5 -21t-8.5 -19.5t-20 -16q-6 -1 -17 -2t-42.5 -7t-61.5 -13.5t-68 -21.5t-67.5 -31t-54.5 -42.5t-35 -54.5v-63h964v63q-14 40 -54.5 73t-89 50.5t-95 29.5t-77.5 15z" />
    <glyph glyph-name="write" unicode="&#xe62f;" 
d="M432 306l-2 -101l106 26l391 462l-104 75zM54 -47h818v596l-86 -100v-416h-646v596h495l64 79h-645v-755zM967 741q11 44 -7 57l-35 24q-10 6 -23.5 4.5t-25.5 -6.5l-12 -5l-27 -31l103 -75z" />
    <glyph glyph-name="food" unicode="&#xe642;" horiz-adv-x="1025" 
d="M991 21q-19 19 -264 225l-135 -34q246 -283 268 -305v0q1 -1 3 -4t3 -4q27 -26 63 -26t62 26q25 24 25 60t-25 62v0v0zM991 21zM1024 864q0 15 -8 23q-9 9 -21 9t-20 -9q-444 -436 -467 -459q-49 41 -59 50q25 39 20.5 88t-38.5 86l-213 210q-9 9 -21 9t-20 -9
q-9 -9 -9 -20t9 -21v0q8 -8 21 -20.5t40.5 -40l45.5 -45.5l18 -18q17 -21 0 -41q-9 -10 -21 -10t-20 10l-127 122v0q-9 10 -21 10t-20 -10q-8 -7 -8 -19t8 -22v0v0l125 -124q9 -10 9 -21t-9 -20q-10 -8 -21.5 -8.5t-19.5 8.5l-127 122q-9 10 -21 10t-20 -10q-9 -9 -9 -20
t9 -20q170 -166 215 -209q34 -33 84 -37.5t92 20.5q34 -39 49 -57q-64 -63 -151 -148.5t-143.5 -141t-63.5 -62.5q-2 -2 -2 -4q-22 -26 -21 -60t25 -56q25 -25 59 -26t60 22v0q23 17 376 425q35 -25 78 -21.5t74 33.5q1 3 4 4q94 95 187 267.5t93 260.5v0v0v0zM1024 864z
" />
    <glyph glyph-name="ask" unicode="&#xe63b;" 
d="M206 77q-37 -19 -88 -28q-10 -2 39 -17t149 -25q46 -5 81 -6h34.5h31.5q28 1 53 3t45 5q82 9 153 45.5t123.5 92.5t81.5 129t28 156q-1 87 -34.5 163.5t-92 132.5t-134.5 89q-75 32 -160 32h-5q-88 -1 -165 -35t-134 -91.5t-89.5 -134t-31.5 -164.5q2 -82 32.5 -154
t79.5 -125q15 -18 18.5 -37.5t-15.5 -30.5v0zM247 57q22 24 16 58q-5 31 -29 58q-44 49 -72 113q-27 65 -29 139q0 78 29 147t80.5 121t120.5 82t148 31h5q76 0 143 -28q70 -30 122 -80q53 -51 83 -120q30 -68 31 -147q1 -74 -25 -139q-27 -66 -74 -116q-47 -51 -112 -84
q-63 -33 -139 -41q-19 -3 -42 -4q-25 -2 -52 -3q-13 -1 -29 -1q-17 0 -34 1q-34 1 -78 5q-35 4 -63 8v0zM514 234q-17 0 -29.5 12.5t-12.5 30t12.5 30t30 12.5t30 -12.5t12.5 -30t-12.5 -30t-30.5 -12.5v0v0zM629 477q-13 -22 -54 -59q-5 -3 -15.5 -12t-16.5 -14.5t-7.5 -9
t-1.5 -9t0.5 -15.5t0.5 -18h-42v42v43q2 5 6 9.5t7.5 7.5t11.5 9.5t13 11.5q30 26 35 33q9 13 9 28q0 21 -15 37q-20 19 -46 19q-18 0 -40 -20q-19 -17 -24 -48q-1 -7 -16.5 -10t-31 1.5t-14.5 16.5q1 45 37 79q34 32 89 32q58 0 92.5 -32.5t34.5 -76.5q0 -24 -12 -45v0v0z
" />
    <glyph glyph-name="tui" unicode="&#xe615;" 
d="M529 844q-61 0 -148 -18t-158.5 -36t-93.5 -18v-493q3 -23 11 -48.5t34.5 -66.5t67 -76.5t115.5 -72t172 -60.5q98 24 172.5 60.5t115 72t67 76.5t35 66.5t10.5 48.5v493q-21 0 -92.5 18t-159 36t-148.5 18zM881 294q-3 -21 -10 -43.5t-30.5 -58.5t-59 -67t-101 -63
t-151.5 -53q-85 21 -151 53t-101.5 63t-59 67t-30.5 58.5t-10 43.5v433q20 0 82.5 16t139.5 31.5t130.5 15.5t130.5 -15.5t139.5 -31.5t81.5 -16v-433zM462 255q29 -4 127 -4q74 0 186 2q-15 -38 -24 -65l-179 2l-107 2q-23 0 -51.5 11t-52.5 37l-54 -62l-29 76q22 20 50 44
v135h-47v66h110v-208q20 -26 60 -34l-26 44q14 16 14 46v307h282v-217l40 -46q-39 -24 -75 -44q35 -24 65 -46l-45 -46l-116 86q-1 -31 -1 -49q-95 -22 -127 -37zM343 674q43 -52 70 -91l-59 -39q-34 53 -65 95zM657 595h-154v-33h154v33zM657 475v34h-154v-34h154zM577 350
l-38 28l38 38h-74v-85q33 9 74 19zM690 416h-109l57 -37q26 18 52 37z" />
    <glyph glyph-name="area" unicode="&#xe601;" 
d="M897 496h1q2 -52 -21 -118.5t-57 -126t-81.5 -126t-85 -111.5t-76.5 -89v0q-11 -12 -30 -21t-36 -9q-19 0 -40 11.5t-31 27.5q-101 109 -170 210t-96.5 162.5t-38.5 114.5t-10 68.5t3 22.5v0v0v0q0 105 51.5 193t140.5 139.5t193.5 51.5t193 -51.5t140 -139.5t51.5 -193
q0 -3 -0.5 -8.5t-0.5 -7.5zM513 672q-66 0 -113.5 -46.5t-47.5 -113t47.5 -113.5t113.5 -47t113 47t47 113.5t-47 113t-113 46.5z" />
    <glyph glyph-name="movie" unicode="&#xe64d;" horiz-adv-x="1273" 
d="M504 896h105q111 -7 214 -57.5t178.5 -137.5t103.5 -195q23 -79 14.5 -160t-40 -154t-82.5 -137q11 -5 30.5 -18.5t36.5 -21t34 -4.5q18 0 34.5 10t25 20.5t22.5 30t20 27.5q37 -32 74 -63q-8 -62 -60 -99t-115 -33q-49 -3 -93 17t-97 57q-155 -97 -301 -106h-91
q-94 4 -184 41.5t-160.5 98.5t-117.5 146.5t-55 180.5v86q7 94 52 179t114 146.5t157.5 100t180.5 45.5zM509 783q-44 -12 -70.5 -50.5t-24.5 -85t36 -78.5q27 -33 71 -43t84 1t71 43t34 76q4 37 -14 70.5t-48.5 51.5t-68 25t-70.5 -10zM207 509q-42 -13 -68 -51.5
t-23.5 -84.5t35.5 -77q27 -33 71 -43.5t84 0.5t71 43t35 76q4 37 -14.5 71t-49.5 52t-69 24.5t-72 -10.5zM807 510q-44 -11 -71 -50.5t-25 -86.5t36 -79q35 -39 90 -45.5t103 21t63 78.5q10 31 2.5 62.5t-28 54t-49 38.5t-60 17t-61.5 -10zM527 423q-37 -21 -19 -56
q15 -30 48 -35q23 -3 41 13q26 20 17 49t-36 38t-51 -9zM530 245q-34 -6 -62 -28.5t-42 -53t-12 -65.5t25 -63q32 -45 88.5 -56.5t108.5 14.5t69 79q14 38 1 73.5t-39 61t-64 36.5t-73 2z" />
    <glyph glyph-name="xuexiao" unicode="&#xe600;" 
d="M102 247h137v-273h-137v273zM785 179v68h137v-273h-137v137v68zM239 452l239 137l34 -60l-239 -137zM751 392l-239 137l34 60l239 -137zM478 862h68v-333h-68v333zM546 862h171v-137h-171v137zM654 452v68h-115v17h-55v-17h-109v-68h-136v-478h546v478h-131zM512 475
q37 0 63.5 -26.5t26.5 -64t-26.5 -64t-63.5 -26.5t-63.5 26.5t-26.5 64t26.5 64t63.5 26.5zM649 -25h-274v205h274v-205zM34 -26h956v-68h-956v68z" />
    <glyph glyph-name="fire" unicode="&#xe643;" 
d="M429 -128q-64 31 -114 62.5t-85 58t-57.5 57t-36 53.5t-15.5 54t-1 50.5t12 52t18.5 50t23.5 52.5q20 44 29.5 68.5t21 64t11 76.5t-12.5 74q72 -58 111 -115q23 141 186 366q-7 -26 -8 -52t1 -46.5t11.5 -46.5t16 -41t23 -41.5t24.5 -38t28 -39t27 -36.5q23 96 114 193
q-8 -46 0 -94t25.5 -88.5t39.5 -82.5t40.5 -80.5t31.5 -78t10.5 -79.5t-22 -81t-67 -85.5t-122.5 -90.5q14 45 15.5 94t-5 85.5t-20.5 84.5q-54 -90 -195 -196q11 33 12 63t-3 50.5t-18 45t-25 38t-32.5 37.5t-31.5 37q-1 -29 -7 -77t-9 -84.5t-2 -85t15.5 -101t41.5 -107.5
z" />
    <glyph glyph-name="money" unicode="&#xe641;" 
d="M789 -62h-557q-70 0 -120 49.5t-50 119.5v557q0 70 50 120t120 50h557q70 0 119.5 -50t49.5 -120v-557q0 -70 -49.5 -119.5t-119.5 -49.5zM232 750q-36 0 -61 -25t-25 -61v-557q0 -36 25 -61t61 -25h557q36 0 61 25t25 61v557q0 36 -25 61t-61 25h-557zM702 437h-384
q-17 0 -29 12t-12 29.5t12 29.5t29 12h384q18 0 30 -12t12 -29.5t-12 -29.5t-30 -12zM702 266h-384q-17 0 -29 12t-12 29.5t12 29.5t29 12h384q18 0 30 -12t12 -29.5t-12 -29.5t-30 -12zM510.5 103q-17.5 0 -29.5 12t-12 29v309l-145 145q-12 12 -12 29t12.5 29.5t29.5 12.5
t29 -12l169 -169v-344q0 -17 -12 -29t-29.5 -12zM510 431q-17 0 -29 12.5t-12 29.5t12 29l154 155q12 12 29.5 12t29.5 -12.5t12 -29.5t-12 -29l-154 -154q-12 -13 -30 -13z" />
    <glyph glyph-name="pen" unicode="&#xe656;" 
d="M910 589q0 80 -57 136.5t-136 56.5h-1q-33 0 -72.5 -16.5t-62.5 -39.5q-1 0 -86 -85l-169.5 -169.5l-84.5 -84.5q-25 -25 -41 -65q-8 -18 -100 -296q-2 -7 -2 -13q0 -18 12.5 -30.5t29.5 -12.5q7 0 14 2q272 90 296 100q40 16 65 41l92 92h3q44 0 75 31l192 192
q13 13 22 35t9 40t-6 35q8 27 8 51zM404 146q-25 -9 -87 -30l-73 73q22 66 30 87zM229 144l43 -43l-64 -21zM557 276l-103 -103l-10 -7l-150 150l7 10l305 304l116 -116l-157 -158q-17 -16 -18.5 -38.5t10.5 -41.5zM817 488l-192 -192q-6 -6 -15 -6t-15.5 6t-6.5 15t7 15
l192 192q6 6 15 6t15 -6t6 -15t-6 -15zM821 563q-9 4 -20 4q-26 0 -44 -19l-5 -4l-116 117l3 3q31 31 77 31.5t77 -30.5q13 -13 22.5 -35.5t9.5 -40.5v-1q0 -11 -4 -25z" />
    <glyph glyph-name="meituan" unicode="&#xe7cc;" 
d="M178 548q-22 31 -29 50h44q6 0 8 -5q1 -2 5 -8q28 -46 68 -37q5 1 9 0q41 -9 65 35q10 18 30 16h28q-2 -7 -5 -14t-6 -11.5t-9 -13t-8 -12.5h85q10 1 13 -2.5t3 -12.5q0 -21 -3.5 -24t-22.5 -3h-137q-8 0 -11 -3t-3 -12t3 -11.5t11 -2.5h62t62 1q10 0 14 -3.5t3 -13.5
q-1 -4 0 -7q2 -12 -3 -16t-18 -4q-38 1 -113 0q-1 0 -7 0.5t-8 0t-4.5 -4t-2.5 -9.5t1 -9t4 -4.5t4 -1.5h6h6h147q10 0 14 -3t4 -13q-1 -20 -4 -23t-23 -3h-374q-11 -1 -14.5 3t-3.5 14q1 4 1 9v7t1 4.5t1 3t2.5 1t4 0.5h7h8.5h144h2q6 0 8.5 0.5t5 3.5t2.5 10t-3 10.5
t-5.5 4t-10.5 0.5h-60t-60 -1q-10 0 -14 3.5t-2 12.5q1 6 0 13q-1 8 2 11.5t13 3.5q22 -1 61.5 -1h61.5q9 0 13 2.5t4 11.5q0 10 -4 12.5t-13 2.5h-138h-8h-6h-4t-3 1t-1.5 1.5t-1 3t0 4.5t-0.5 6v8q-1 11 3.5 15t15.5 3h83zM321 286q20 -28 47 -42t66 -23q24 -6 43 -7
q8 0 10.5 -3t2.5 -12q0 -23 -3.5 -27t-27.5 -2q-117 11 -180 94q-33 -47 -80.5 -65.5t-120.5 -28.5q-8 -2 -11 1t-2 10q0 4 -0.5 11t0 12t2.5 8.5t7 4.5t10.5 0t10.5 1q53 10 83 22q28 12 52 46h-97q-49 0 -52 -1q-7 0 -9.5 2.5t-2.5 10.5q-2 24 2 28t29 4h131q20 -1 20 15
q-1 13 13 12q8 -1 18 0q8 0 12 -0.5t7 -4.5t1 -13q0 -5 1.5 -7t3 -2.5t6 0l4.5 0.5q108 -1 151 0q11 1 15.5 -3t2.5 -15v-13q2 -8 -1.5 -11t-12.5 -3t-140 1h-11zM960 571q0 10 -3 13.5t-13 3.5q-175 -1 -349 0q-10 0 -13.5 -4t-3.5 -14q1 -21 1 -187q0 -162 -1 -189
q0 -10 3.5 -13.5t13.5 -3.5q22 0 330 1q20 0 27.5 6.5t7.5 26.5q-1 260 0 360zM914 247q0 -11 -4.5 -15.5t-16.5 -4.5q-116 1 -251 0q-10 0 -13.5 3.5t-3.5 13.5v139v141q0 8 3 11t12 3h259q9 0 12 -3t3 -11q-1 -134 0 -277zM763 431q-93 0 -105 -1q-11 0 -14.5 3t-3.5 14
q1 21 4 24.5t24 3.5h119q9 0 12.5 3t2.5 12q-1 2 -1 12v10q0 10 2.5 11.5t15.5 2.5h6q13 1 17.5 -3t2.5 -16q-1 -2 -0.5 -10.5t0.5 -11.5q-1 -11 10 -10q3 0 11 -0.5t11 0.5q14 3 18 -2t4.5 -19.5t-5 -20t-19.5 -2.5h-7h-9q-11 0 -12.5 -2t-1.5 -15v-6v-117
q0 -25 -9.5 -35.5t-33.5 -13.5q-4 -1 -25.5 -0.5t-24.5 -0.5q-12 0 -11 11v2v2q0 21 3 24.5t24 4.5q22 0 27.5 6t5.5 26v90q-43 -67 -143 -131v49q0 3 1 5.5t2.5 3.5t4.5 2.5t4 2.5q63 44 93 92z" />
  </font>
</defs>
</svg>
